<?xml version="1.0" encoding="UTF-8" standalone="no"?>
<!DOCTYPE svg PUBLIC "-//W3C//DTD SVG 1.1//EN" "http://www.w3.org/Graphics/SVG/1.1/DTD/svg11.dtd">
<svg width="100%" height="100%" viewBox="0 0 2239 306" version="1.1" xmlns="http://www.w3.org/2000/svg" xmlns:xlink="http://www.w3.org/1999/xlink" xml:space="preserve" xmlns:serif="http://www.serif.com/" style="fill-rule:evenodd;clip-rule:evenodd;stroke-linejoin:round;stroke-miterlimit:2;">
    <g transform="matrix(1,0,0,1,-1420.002083,-2447.931667)">
        <g transform="matrix(4.166667,0,0,4.166667,0,0)">
            <g transform="matrix(1,0,0,1,341.4005,601.0776)">
                <path d="M0,34.349C2.025,35.174 5.025,35.774 8.024,35.774C13.875,35.774 16.574,32.849 16.574,23.999L16.574,-13.574L30.449,-13.574L30.449,25.95C30.449,41.849 22.874,47.923 9.825,47.923C6,47.923 2.1,47.399 -0.6,46.349L0,34.349Z" style="fill-rule:nonzero;"/>
            </g>
        </g>
        <g transform="matrix(4.166667,0,0,4.166667,0,0)">
            <g transform="matrix(1,0,0,1,394.9185,615.6531)">
                <path d="M0,10.874C-0.225,11.399 -0.3,11.849 -0.3,12.148C-0.3,12.824 0.225,12.974 1.425,12.974L10.425,12.974C11.625,12.974 12.149,12.824 12.149,12.148C12.149,11.849 12.075,11.399 11.85,10.874L6.75,-1.876C6.525,-2.476 6.225,-2.775 5.925,-2.775C5.625,-2.775 5.325,-2.476 5.1,-1.876L0,10.874ZM-3.375,23.174C-4.575,23.174 -5.1,23.549 -5.55,24.748C-6.075,26.174 -6.675,27.599 -7.8,30.974C-8.475,32.773 -8.85,33.073 -10.799,33.073L-20.249,33.073C-21.449,33.073 -21.974,32.923 -21.974,32.323C-21.974,32.023 -21.824,31.648 -21.524,31.048C-18.749,24.823 -17.249,21.448 -15.974,18.448L-4.95,-7.425C-3.525,-10.875 -1.725,-15 0.225,-20.1C0.975,-21.899 1.35,-22.199 3.3,-22.199L9.225,-22.199C11.175,-22.199 11.55,-21.899 12.299,-20.1C14.25,-15 16.049,-10.726 17.399,-7.65L28.424,18.148C29.849,21.448 31.349,24.823 34.124,31.048C34.424,31.648 34.574,32.023 34.574,32.323C34.574,32.923 34.049,33.073 32.849,33.073L22.649,33.073C20.699,33.073 20.324,32.773 19.649,30.974C18.524,27.599 17.924,26.174 17.399,24.748C16.949,23.474 16.574,23.174 15.225,23.174L-3.375,23.174Z" style="fill-rule:nonzero;"/>
            </g>
        </g>
        <g transform="matrix(4.166667,0,0,4.166667,0,0)">
            <g transform="matrix(1,0,0,1,447.0435,608.4544)">
                <path d="M0,25.272C0,29.248 0.225,37.872 0.225,38.397C0.225,39.972 -0.225,40.272 -1.95,40.272L-10.274,40.272C-12,40.272 -12.449,39.972 -12.449,38.397C-12.449,37.872 -12.225,29.248 -12.225,25.272L-12.225,-0.001C-12.225,-3.976 -12.449,-12.601 -12.449,-13.126C-12.449,-14.701 -12,-15 -10.274,-15L-5.325,-15C-3.45,-15 -2.85,-14.701 -1.65,-13.276C1.125,-9.901 3.75,-6.901 6.45,-3.827L22.05,13.948C22.425,14.398 22.8,14.623 23.024,14.623C23.324,14.623 23.55,14.248 23.55,13.423L23.55,-0.001C23.55,-3.976 23.324,-12.601 23.324,-13.126C23.324,-14.701 23.774,-15 25.499,-15L33.824,-15C35.549,-15 35.999,-14.701 35.999,-13.126C35.999,-12.601 35.773,-3.976 35.773,-0.001L35.773,25.272C35.773,29.248 35.999,37.872 35.999,38.397C35.999,39.972 35.549,40.272 33.824,40.272L30.074,40.272C28.199,40.272 27.6,39.972 26.399,38.546C23.699,35.397 21.225,32.623 18.149,29.172L1.5,10.498C1.125,10.048 0.825,9.898 0.6,9.898C0.225,9.898 0,10.273 0,11.098L0,25.272Z" style="fill-rule:nonzero;"/>
            </g>
        </g>
        <g transform="matrix(4.166667,0,0,4.166667,0,0)">
            <g transform="matrix(1,0,0,1,597.5816,598.9288)">
                <path d="M0,44.323C0,46.123 -0.375,46.647 -2.025,47.397C-5.85,48.972 -12,50.248 -17.85,50.248C-38.023,50.248 -46.423,38.323 -46.423,23.624C-46.423,4.349 -32.924,-5.925 -15.6,-5.925C-10.574,-5.925 -5.625,-4.8 -2.175,-3.226C-1.125,-2.7 -0.6,-2.25 -0.6,-1.575C-0.6,-1.2 -0.75,-0.75 -0.975,-0.151L-4.125,8.099C-4.5,9.149 -4.8,9.674 -5.325,9.674C-5.7,9.674 -6.149,9.449 -6.825,9.074C-9.225,7.8 -12.6,6.899 -15.824,6.899C-26.099,6.899 -33.299,13.199 -33.299,23.624C-33.299,34.423 -26.024,38.773 -17.249,38.773C-16.274,38.773 -15.3,38.698 -14.399,38.548C-12.6,38.248 -12.225,37.798 -12.225,35.998L-12.225,34.873C-12.225,31.873 -12.449,26.023 -12.449,25.499C-12.449,23.924 -12,23.624 -10.274,23.624L-1.95,23.624C-0.225,23.624 0.225,23.924 0.225,25.499C0.225,26.023 0,31.873 0,34.873L0,44.323Z" style="fill-rule:nonzero;"/>
            </g>
        </g>
        <g transform="matrix(4.166667,0,0,4.166667,0,0)">
            <g transform="matrix(1,0,0,1,626.7564,626.8642)">
                <path d="M0,-17.466C13.038,-17.466 21.977,-11.48 21.977,0.165C21.977,10.497 15.334,21.812 -4.51,21.812C-10.086,21.812 -16.646,20.501 -21.32,18.205C-22.469,17.631 -23.042,17.138 -23.042,16.4C-23.042,15.991 -22.878,15.499 -22.632,14.843L-19.763,7.381C-19.271,6.232 -18.942,5.74 -18.368,5.74C-18.04,5.74 -17.548,5.986 -16.811,6.478C-12.956,8.938 -8.118,10.005 -4.101,10.005C4.428,10.005 7.954,6.232 7.954,1.066C7.954,-4.1 2.952,-6.56 -3.198,-6.56C-6.396,-6.56 -9.021,-6.15 -10.988,-5.493C-12.136,-5.083 -12.956,-4.92 -13.694,-4.92C-14.433,-4.92 -15.17,-5.083 -16.318,-5.411L-18.122,-5.903C-19.763,-6.396 -20.254,-6.806 -20.254,-8.035C-20.254,-8.281 -20.254,-8.692 -20.172,-9.102C-19.845,-11.89 -19.599,-14.268 -19.353,-17.302L-18.45,-28.29C-18.204,-31.487 -17.958,-34.112 -17.876,-36.9C-17.794,-38.868 -17.466,-39.278 -15.826,-39.278C-14.76,-39.278 -5.74,-39.113 -1.395,-39.113L3.771,-39.113C8.118,-39.113 17.548,-39.278 18.122,-39.278C19.845,-39.278 20.172,-38.786 20.172,-36.9L20.172,-28.617C20.172,-26.732 19.845,-26.239 18.122,-26.239C17.548,-26.239 8.118,-26.404 3.771,-26.404L-3.444,-26.404C-5.576,-26.404 -5.986,-26.075 -6.15,-23.944L-6.396,-20.336C-6.479,-19.68 -6.561,-18.695 -6.561,-18.449C-6.561,-17.466 -6.232,-17.138 -5.248,-17.138C-4.51,-17.138 -2.214,-17.466 0,-17.466" style="fill-rule:nonzero;"/>
            </g>
        </g>
        <g transform="matrix(4.166667,0,0,4.166667,0,0)">
            <g transform="matrix(1,0,0,1,680.2906,616.8726)">
                <path d="M0,27.47C-1.395,31.241 -2.706,34.85 -5.084,41.656C-5.822,43.624 -6.232,43.952 -8.364,43.952L-19.024,43.952C-20.336,43.952 -20.91,43.788 -20.91,43.05C-20.91,42.722 -20.746,42.312 -20.5,41.656C-17.794,35.096 -16.318,31.324 -14.924,27.716L-3.937,-1.148C-3.69,-1.722 -3.608,-2.215 -3.608,-2.543C-3.608,-3.28 -4.183,-3.444 -5.494,-3.444L-16.482,-3.444C-20.828,-3.444 -29.767,-3.198 -30.832,-3.198C-32.555,-3.198 -32.883,-3.772 -32.883,-5.659L-32.883,-14.104C-32.883,-15.991 -32.555,-16.482 -30.832,-16.482C-30.259,-16.482 -20.828,-16.318 -16.482,-16.318L-2.87,-16.318C1.476,-16.318 10.906,-16.482 11.479,-16.482C13.202,-16.482 13.53,-15.991 13.53,-14.104L13.53,-10.087C13.53,-8.283 13.284,-6.97 12.628,-5.331C10.906,-1.148 9.266,3.116 8.036,6.396L0,27.47Z" style="fill-rule:nonzero;"/>
            </g>
        </g>
        <g transform="matrix(4.166667,0,0,4.166667,0,0)">
            <g transform="matrix(1,0,0,1,709.4,617.5636)">
                <path d="M0,27.904C-0.897,27.896 -1.13,27.739 -1.123,26.92C-1.121,26.646 -1.018,23.411 -1.003,21.655L-0.943,14.129C-0.929,12.373 -0.98,9.135 -0.979,8.862C-0.972,8.043 -0.737,7.889 0.16,7.897L2.422,7.915C3.319,7.923 3.552,8.08 3.545,8.899C3.543,9.173 3.439,12.408 3.425,14.164L3.365,21.69C3.351,23.446 3.403,26.683 3.4,26.957C3.395,27.776 3.159,27.929 2.262,27.922L0,27.904ZM4.143,2.507C4.129,4.222 3.065,5.579 1.193,5.564C-0.328,5.552 -1.49,4.49 -1.478,2.929C-1.465,1.332 -0.4,-0.025 1.472,-0.01C2.992,0.002 4.154,1.026 4.143,2.507" style="fill-rule:nonzero;"/>
            </g>
        </g>
        <g transform="matrix(4.166667,0,0,4.166667,0,0)">
            <g transform="matrix(1,0,0,1,721.9224,631.6979)">
                <path d="M0,7.629C-0.015,9.385 0.037,12.622 0.035,12.896C0.028,13.715 -0.207,13.868 -1.104,13.86L-3.366,13.843C-4.263,13.835 -4.495,13.678 -4.489,12.858C-4.486,12.585 -4.383,9.35 -4.368,7.594L-4.309,0.067C-4.294,-1.688 -4.347,-4.926 -4.345,-5.199C-4.338,-6.018 -4.103,-6.172 -3.206,-6.164L-1.334,-6.149C-0.397,-6.142 -0.242,-5.985 -0.211,-5.049C-0.177,-4.541 -0.101,-4.307 0.095,-4.305C0.212,-4.304 0.408,-4.381 0.683,-4.573C2.173,-5.653 4.012,-6.341 6.117,-6.324C10.135,-6.292 12.805,-3.618 12.77,0.711L12.714,7.731C12.699,9.486 12.752,12.724 12.749,12.997C12.743,13.816 12.507,13.97 11.61,13.962L9.349,13.944C8.451,13.938 8.219,13.78 8.225,12.961C8.228,12.688 8.331,9.451 8.346,7.695L8.392,1.885C8.411,-0.494 7.176,-2.103 4.602,-2.124C3.393,-2.134 2.142,-1.753 0.926,-0.866C0.258,-0.325 0.061,0.025 0.054,0.882L0,7.629Z" style="fill-rule:nonzero;"/>
            </g>
        </g>
        <g transform="matrix(4.166667,0,0,4.166667,0,0)">
            <g transform="matrix(1,0,0,1,750.2457,631.8925)">
                <path d="M0,0.328C-0.042,5.594 3.122,9.871 8.699,9.915C13.77,9.956 17.895,6.283 17.943,0.121C17.985,-5.106 14.781,-9.343 9.205,-9.388C3.628,-9.432 0.045,-5.288 0,0.328M22.625,-0.075C22.552,9.09 15.997,14.264 8.51,14.204C0.046,14.137 -4.737,7.546 -4.68,0.252C-4.61,-8.367 1.246,-13.936 9.358,-13.871C17.859,-13.803 22.684,-7.368 22.625,-0.075" style="fill-rule:nonzero;"/>
            </g>
        </g>
        <g transform="matrix(4.166667,0,0,4.166667,0,0)">
            <g transform="matrix(1,0,0,1,794.5494,626.1146)">
                <path d="M0,12.312C-0.04,17.343 -3.848,20.277 -9.854,20.229C-12.856,20.205 -15.853,19.361 -18.027,18.135C-18.532,17.858 -18.764,17.622 -18.762,17.271C-18.76,17.076 -18.68,16.842 -18.521,16.493L-17.53,14.472C-17.292,13.967 -17.134,13.696 -16.86,13.698C-16.666,13.699 -16.433,13.857 -16.122,14.094C-14.261,15.396 -11.771,16.158 -9.471,16.175C-6.545,16.199 -4.623,14.849 -4.605,12.665C-4.587,10.403 -7.074,9.174 -10.301,7.822C-14.071,6.231 -18.072,4.289 -18.035,-0.392C-17.996,-5.228 -14.113,-7.965 -8.186,-7.918C-5.689,-7.898 -3.198,-7.215 -1.488,-6.421C-0.944,-6.144 -0.673,-5.947 -0.676,-5.596C-0.678,-5.402 -0.758,-5.168 -0.877,-4.858L-1.793,-2.563C-2.031,-2.019 -2.189,-1.748 -2.423,-1.75C-2.618,-1.751 -2.851,-1.869 -3.2,-2.106C-4.637,-2.976 -6.698,-3.656 -8.727,-3.672C-11.847,-3.697 -13.379,-2.344 -13.394,-0.511C-13.409,1.517 -11.39,2.547 -8.163,3.938C-4.082,5.687 0.037,7.631 0,12.312" style="fill-rule:nonzero;"/>
            </g>
        </g>
        <g transform="matrix(4.166667,0,0,4.166667,0,0)">
            <g transform="matrix(1,0,0,1,806.3863,630.1373)">
                <path d="M0,4.757C-0.119,5.028 -0.16,5.262 -0.161,5.418C-0.164,5.769 0.108,5.849 0.732,5.855L7.401,5.907C8.025,5.912 8.299,5.837 8.302,5.486C8.303,5.33 8.266,5.095 8.15,4.821L4.596,-4.139C4.442,-4.53 4.328,-4.765 4.172,-4.766C4.055,-4.767 3.897,-4.573 3.738,-4.145L0,4.757ZM-0.74,9.587C-1.755,9.578 -2.028,9.654 -2.386,10.509C-2.942,11.792 -3.46,13.114 -4.138,14.981C-4.496,15.914 -4.693,16.069 -5.707,16.061L-8.438,16.038C-9.062,16.033 -9.333,15.954 -9.331,15.642C-9.33,15.486 -9.25,15.291 -9.092,14.981C-7.86,12.261 -6.987,10.318 -6.152,8.412L-0.47,-4.764C0.246,-6.435 1.079,-8.301 1.916,-10.4C2.274,-11.334 2.471,-11.487 3.484,-11.479L5.161,-11.466C6.175,-11.458 6.368,-11.301 6.712,-10.361C7.515,-8.25 8.279,-6.371 8.969,-4.728L14.479,8.499C15.321,10.534 16.163,12.49 17.352,15.192C17.505,15.506 17.581,15.7 17.58,15.857C17.577,16.169 17.304,16.244 16.68,16.239L13.676,16.215C12.662,16.207 12.469,16.05 12.125,15.111C11.478,13.234 10.98,11.903 10.445,10.611C10.101,9.752 9.867,9.672 8.814,9.663L-0.74,9.587Z" style="fill-rule:nonzero;"/>
            </g>
        </g>
        <g transform="matrix(4.166667,0,0,4.166667,0,0)">
            <g transform="matrix(1,0,0,1,831.8785,626.7363)">
                <path d="M0,11.911C-0.019,14.173 0.064,18.464 0.062,18.737C0.056,19.557 -0.18,19.71 -1.077,19.702L-3.495,19.682C-4.392,19.676 -4.624,19.518 -4.618,18.699C-4.615,18.426 -4.464,14.137 -4.446,11.875L-4.35,-0.138C-4.332,-2.4 -4.415,-6.69 -4.412,-6.963C-4.406,-7.782 -4.17,-7.936 -3.273,-7.929L-0.855,-7.909C0.041,-7.901 0.273,-7.744 0.268,-6.925C0.265,-6.651 0.114,-2.363 0.096,-0.102L0.069,3.175C0.066,3.603 0.143,3.799 0.338,3.801C0.454,3.802 0.65,3.724 0.847,3.492L5.136,-1.075C6.748,-2.818 8.282,-4.444 10.447,-6.922C11.116,-7.658 11.43,-7.811 12.404,-7.803L15.954,-7.775C16.461,-7.771 16.693,-7.651 16.691,-7.418C16.69,-7.262 16.612,-7.107 16.376,-6.874C13.27,-3.741 11.578,-1.96 9.572,0.091L7.764,1.988C7.408,2.375 7.211,2.646 7.209,2.92C7.207,3.153 7.361,3.428 7.593,3.819L11.75,10.679C13.215,12.914 14.601,15.108 16.95,18.872C17.142,19.185 17.258,19.381 17.257,19.537C17.255,19.771 16.981,19.847 16.396,19.842L13.198,19.816C12.184,19.808 11.951,19.651 11.45,18.789C9.836,15.89 8.604,13.89 7.294,11.812L4.406,7.148C4.137,6.717 3.943,6.521 3.748,6.519C3.515,6.517 3.318,6.671 3.003,7.02L0.564,9.614C0.131,10.079 0.013,10.351 0.007,11.014L0,11.911Z" style="fill-rule:nonzero;"/>
            </g>
        </g>
        <g transform="matrix(4.166667,0,0,4.166667,0,0)">
            <g transform="matrix(1,0,0,1,860.4459,630.571)">
                <path d="M0,4.755C-0.119,5.026 -0.16,5.261 -0.161,5.417C-0.164,5.768 0.108,5.848 0.732,5.853L7.401,5.906C8.025,5.911 8.299,5.835 8.302,5.484C8.303,5.328 8.267,5.094 8.151,4.82L4.596,-4.141C4.442,-4.531 4.327,-4.766 4.171,-4.767C4.054,-4.768 3.897,-4.574 3.737,-4.147L0,4.755ZM-0.741,9.586C-1.755,9.577 -2.028,9.653 -2.387,10.508C-2.943,11.791 -3.461,13.113 -4.139,14.98C-4.497,15.913 -4.693,16.068 -5.707,16.059L-8.438,16.037C-9.061,16.032 -9.332,15.953 -9.33,15.641C-9.329,15.484 -9.25,15.29 -9.091,14.98C-7.861,12.259 -6.987,10.317 -6.152,8.411L-0.47,-4.766C0.245,-6.436 1.079,-8.303 1.915,-10.401C2.273,-11.335 2.47,-11.488 3.483,-11.48L5.161,-11.467C6.175,-11.459 6.369,-11.302 6.712,-10.363C7.515,-8.251 8.28,-6.372 8.968,-4.729L14.479,8.498C15.321,10.533 16.164,12.489 17.352,15.191C17.505,15.505 17.58,15.699 17.579,15.856C17.577,16.168 17.304,16.243 16.68,16.238L13.677,16.214C12.662,16.206 12.469,16.049 12.125,15.109C11.477,13.233 10.98,11.902 10.445,10.61C10.101,9.75 9.867,9.671 8.814,9.662L-0.741,9.586Z" style="fill-rule:nonzero;"/>
            </g>
        </g>
        <g transform="matrix(4.166667,0,0,4.166667,0,0)">
            <g transform="matrix(1,0,0,1,518.2173,599.9188)">
                <path d="M0,38.333C-10.35,38.333 -14.399,30.158 -14.399,22.509C-14.399,22.144 -14.374,21.792 -14.357,21.436C-12.606,22.321 -9.456,22.448 -4.098,18.6C-1.682,16.865 1.156,15.674 4.042,15.64C5.475,15.624 6.91,15.91 8.227,16.556C10.095,17.473 11.483,19.392 13.519,19.909C13.875,19.999 14.21,20.017 14.534,19.998C14.639,20.839 14.699,21.68 14.699,22.509C14.699,32.333 8.325,38.333 0,38.333M0.75,-5.915C-6.352,-5.915 -12.73,-3.815 -17.62,0.094C-18.384,-0.654 -19.282,-1.538 -19.903,-2.169L-25.182,-7.534C-26.414,-8.786 -28.628,-11.146 -28.82,-11.341C-29.395,-11.925 -29.67,-11.872 -30.31,-11.243L-31.922,-9.656C-32.562,-9.027 -32.619,-8.752 -32.044,-8.168C-31.852,-7.974 -29.527,-5.722 -28.296,-4.47L-23.017,0.895C-22.407,1.514 -21.557,2.405 -20.831,3.171C-24.979,7.933 -27.448,14.444 -27.448,22.434C-27.448,35.483 -18.899,50.258 -0.524,50.258C14.774,50.258 27.749,39.982 27.749,21.684C27.749,8.709 19.35,-5.915 0.75,-5.915" style="fill-rule:nonzero;"/>
            </g>
        </g>
    </g>
</svg>
